<?xml version="1.0" standalone="no"?>
<!DOCTYPE svg PUBLIC "-//W3C//DTD SVG 20010904//EN"
 "http://www.w3.org/TR/2001/REC-SVG-20010904/DTD/svg10.dtd">
<svg version="1.0" xmlns="http://www.w3.org/2000/svg"
 width="512.000000pt" height="512.000000pt" viewBox="0 0 512.000000 512.000000"
 preserveAspectRatio="xMidYMid meet">

<g transform="translate(0.000000,512.000000) scale(0.100000,-0.100000)"
fill="#000000" stroke="none">
<path d="M85 4963 c-32 -8 -74 -54 -81 -90 -8 -41 11 -89 42 -109 12 -9 107
-31 211 -49 219 -40 284 -67 368 -150 105 -105 90 -45 320 -1341 113 -637 215
-1187 226 -1221 56 -170 208 -310 389 -358 82 -22 2548 -22 2630 0 150 40 295
156 358 285 18 36 154 469 303 964 220 731 270 905 264 933 -8 42 -44 78 -86
87 -18 3 -919 6 -2004 6 l-1973 0 -6 28 c-3 15 -24 127 -46 249 -22 121 -47
243 -56 270 -64 192 -251 372 -444 427 -46 13 -119 27 -375 70 -11 2 -29 1
-40 -1z m4770 -1285 c-3 -7 -115 -377 -250 -822 -263 -871 -261 -866 -349
-933 -96 -73 10 -68 -1376 -68 -1174 0 -1248 1 -1297 18 -86 30 -173 120 -201
207 -6 19 -72 379 -147 800 -74 421 -137 775 -140 788 l-5 22 1884 0 c1504 0
1884 -3 1881 -12z"/>
<path d="M1570 1345 c-174 -32 -345 -159 -423 -315 -49 -100 -67 -175 -67
-285 0 -172 51 -296 175 -421 124 -126 261 -184 433 -184 276 1 516 187 587
455 18 71 21 222 4 291 -6 27 -30 87 -52 134 -81 168 -246 292 -432 325 -97
17 -128 17 -225 0z m282 -253 c173 -85 259 -284 198 -461 -26 -77 -66 -138
-117 -179 -204 -160 -487 -96 -596 136 -28 60 -32 77 -32 157 1 111 26 182 92
255 85 95 173 131 304 127 74 -3 96 -8 151 -35z"/>
<path d="M3942 1349 c-136 -24 -243 -81 -340 -184 -79 -83 -125 -165 -152
-271 -83 -325 119 -657 450 -740 89 -22 251 -15 339 16 82 29 198 107 256 173
90 102 155 273 155 407 0 192 -112 397 -277 506 -115 76 -300 117 -431 93z
m260 -256 c81 -38 146 -102 185 -181 25 -51 28 -67 28 -162 0 -93 -3 -112 -27
-162 -115 -245 -433 -301 -621 -109 -207 210 -116 547 173 642 14 5 63 7 110
6 72 -2 95 -7 152 -34z"/>
</g>
</svg>
