<?xml version="1.0" standalone="no"?>
<!DOCTYPE svg PUBLIC "-//W3C//DTD SVG 20010904//EN"
 "http://www.w3.org/TR/2001/REC-SVG-20010904/DTD/svg10.dtd">
<svg version="1.0" xmlns="http://www.w3.org/2000/svg"
 width="225.000000pt" height="225.000000pt" viewBox="0 0 225.000000 225.000000"
 preserveAspectRatio="xMidYMid meet">

<g transform="translate(0.000000,225.000000) scale(0.100000,-0.100000)"
fill="#000000" stroke="none">
<path d="M805 2241 c-142 -24 -307 -90 -410 -165 -505 -366 -526 -1103 -42
-1491 92 -74 209 -134 332 -171 81 -25 106 -27 245 -28 131 0 168 3 240 23
134 36 223 82 372 190 18 13 40 -7 327 -292 168 -169 314 -307 324 -307 22 0
57 35 57 57 0 10 -138 156 -307 325 -306 306 -306 307 -289 330 102 139 153
240 188 370 33 120 33 348 0 461 -49 171 -129 312 -243 428 -114 115 -277 209
-434 249 -89 23 -279 34 -360 21z m270 -116 c412 -72 705 -440 682 -855 -7
-122 -25 -196 -73 -298 -103 -223 -303 -392 -544 -458 -92 -25 -309 -25 -405
0 -254 66 -473 259 -565 498 -209 539 180 1114 761 1127 31 0 96 -6 144 -14z"/>
</g>
</svg>
