<?xml version="1.0" standalone="no"?>
<!DOCTYPE svg PUBLIC "-//W3C//DTD SVG 20010904//EN"
 "http://www.w3.org/TR/2001/REC-SVG-20010904/DTD/svg10.dtd">
<svg version="1.0" xmlns="http://www.w3.org/2000/svg"
 width="512.000000pt" height="512.000000pt" viewBox="0 0 512.000000 512.000000"
 preserveAspectRatio="xMidYMid meet">

<g transform="translate(0.000000,512.000000) scale(0.100000,-0.100000)"
fill="#000000" stroke="none">
<path d="M1475 4474 c-293 -44 -497 -138 -678 -313 -177 -171 -281 -365 -338
-633 -30 -136 -37 -407 -15 -556 55 -370 217 -717 506 -1082 99 -125 424 -452
565 -569 290 -240 653 -486 963 -652 l83 -44 76 40 c311 162 717 441 1009 692
603 520 948 1061 1030 1615 22 149 15 420 -15 556 -55 255 -147 435 -309 604
-232 241 -558 364 -916 344 -296 -16 -603 -137 -820 -326 -26 -22 -51 -40 -56
-40 -5 0 -30 18 -56 40 -158 138 -387 250 -613 301 -84 19 -345 33 -416 23z
m401 -238 c220 -54 412 -165 583 -338 l101 -102 100 102 c396 400 977 486
1396 207 427 -284 548 -936 284 -1536 -250 -568 -881 -1185 -1687 -1648 -106
-61 -77 -66 -270 50 -878 530 -1486 1180 -1672 1784 -53 173 -66 262 -65 450
0 237 29 376 116 552 194 397 649 592 1114 479z"/>
</g>
</svg>
